<svg width="748" height="326" viewBox="0 0 748 326" fill="none" xmlns="http://www.w3.org/2000/svg">
<g clip-path="url(#clip0_54_2074)">
<path d="M400.5 -25.5C423.071 -25.5 441.5 -6.99253 441.5 16C441.5 38.9925 423.071 57.5 400.5 57.5C377.929 57.5 359.5 38.9925 359.5 16C359.5 -6.99252 377.929 -25.5 400.5 -25.5Z" stroke="#747474" stroke-width="15"/>
</g>
<path d="M524.5 75.5C524.5 98.0713 505.993 116.5 483 116.5C460.007 116.5 441.5 98.0713 441.5 75.5C441.5 52.9287 460.007 34.5 483 34.5C505.993 34.5 524.5 52.9287 524.5 75.5Z" stroke="#747474" stroke-width="15"/>
<circle cx="474" cy="84" r="15" fill="#747474"/>
<g clip-path="url(#clip1_54_2074)">
<circle cx="107.5" cy="133.5" r="100" stroke="#747474" stroke-width="15"/>
</g>
<g clip-path="url(#clip2_54_2074)">
<path d="M5 90L170 90" stroke="#747474" stroke-width="15"/>
</g>
<g clip-path="url(#clip3_54_2074)">
<path d="M118 17L118 182" stroke="#747474" stroke-width="15"/>
</g>
<path d="M218.934 93L198.479 93C198.487 92.9092 198.487 92.8102 198.487 92.7112C198.487 88.9407 197.316 85.6735 194.982 82.9178C192.861 80.4097 189.668 79.0401 185.401 78.8091C184.959 78.7761 184.509 78.7678 184.05 78.7678L168 78.7678L168 58.2239L184.124 58.2239C184.566 58.2239 185 58.2157 185.418 58.1827C189.7 57.9682 192.919 56.5986 195.048 54.0822C197.382 51.3265 198.553 48.0593 198.553 44.2888C198.553 44.1898 198.553 44.0908 198.544 44L219 44L219 44.2888C219 48.4635 218.271 52.6053 216.797 56.7058C215.331 60.8146 213.194 64.4861 210.385 67.7203C210.148 68.0008 209.902 68.2731 209.648 68.5371C209.878 68.7846 210.099 69.0322 210.32 69.2797C213.12 72.5139 215.258 76.1854 216.732 80.2859C218.206 84.3947 218.934 88.5282 218.934 92.7112L218.934 93Z" fill="#747474"/>
<path d="M160 27H140V109H160V27Z" fill="#747474"/>
<path d="M219 35L198.548 35C198.548 34.9088 198.548 34.8093 198.548 34.7099C198.548 30.9214 197.377 27.6468 195.043 24.8697C192.702 22.0926 189.058 20.7082 184.121 20.7082L168 20.7082L168 -2.22928e-06L184.121 -1.5246e-06C189.869 -1.27336e-06 194.945 1.01966 199.358 3.0424C203.771 5.07342 207.439 7.78423 210.387 11.1665C213.195 14.4162 215.332 18.1052 216.798 22.2252C218.271 26.3536 219 30.5069 219 34.7016L219 34.9917L219 35Z" fill="#747474"/>
<path d="M140 118L160.452 118C160.452 118.091 160.452 118.191 160.452 118.29C160.452 122.079 161.623 125.353 163.957 128.13C166.298 130.907 169.942 132.292 174.879 132.292L191 132.292L191 153L174.879 153C169.131 153 164.055 151.98 159.642 149.958C155.229 147.927 151.561 145.216 148.613 141.833C145.805 138.584 143.668 134.895 142.202 130.775C140.729 126.646 140 122.493 140 118.298L140 118.008L140 118Z" fill="#747474"/>
<rect x="238" y="134.25" width="25" height="25" transform="rotate(-90 238 134.25)" fill="#747474"/>
<rect x="238" y="105.5" width="25" height="25" transform="rotate(-90 238 105.5)" fill="#747474"/>
<rect x="238" y="76.75" width="25" height="25" transform="rotate(-90 238 76.75)" fill="#747474"/>
<rect x="238" y="48" width="25" height="25" transform="rotate(-90 238 48)" fill="#747474"/>
<path d="M324.925 25.2495C310.657 33.3638 296.497 41.6675 282.417 50.1334C281.532 50.6744 280.62 51.2424 280.057 52.1079C279.413 53.1628 279.386 54.4881 279.413 55.7323C279.467 62.1696 279.521 68.607 279.547 75.0444C279.547 76.6943 279.601 78.4253 280.352 79.8859C281.022 81.1571 282.202 82.1038 283.356 82.9964C295.236 92.2738 307.144 101.551 319.025 110.801C319.669 111.315 320.339 111.829 321.09 112.154C322.19 112.641 323.396 112.695 324.603 112.776C329.297 113.019 333.99 113.263 338.683 113.506C339.89 113.56 341.124 113.641 342.277 113.263C343.698 112.803 344.852 111.721 345.924 110.666C351.261 105.527 356.598 100.415 361.935 95.2761C364.376 92.9229 366.87 90.5157 368.479 87.5404C368.13 81.4817 367.835 75.3689 367.514 69.2832C367.514 68.9857 367.46 68.6341 367.219 68.4447C367.031 68.3095 366.816 68.3095 366.575 68.3095C352.87 68.3636 339.193 68.4177 325.488 68.4447" stroke="#747474" stroke-width="7" stroke-miterlimit="10"/>
<path d="M564 39H543V80H564V39Z" fill="#747474"/>
<path d="M586 139L586 118.548C586.091 118.548 586.191 118.548 586.29 118.548C590.079 118.548 593.353 117.377 596.13 115.043C598.907 112.702 600.292 109.058 600.292 104.121L600.292 88L621 88L621 104.121C621 109.869 619.98 114.945 617.958 119.358C615.927 123.771 613.216 127.439 609.833 130.387C606.584 133.195 602.895 135.332 598.775 136.798C594.646 138.271 590.493 139 586.298 139L586.008 139L586 139Z" fill="#747474"/>
<path d="M578 139L578 118.548C577.909 118.548 577.809 118.548 577.71 118.548C573.921 118.548 570.647 117.377 567.87 115.043C565.093 112.702 563.708 109.058 563.708 104.121L563.708 88L543 88L543 104.121C543 109.869 544.02 114.945 546.042 119.358C548.073 123.771 550.784 127.439 554.167 130.387C557.416 133.195 561.105 135.332 565.225 136.798C569.354 138.271 573.507 139 577.702 139L577.992 139L578 139Z" fill="#747474"/>
<path d="M439.688 270.925L439.985 233.824C439.985 232.88 439.985 231.886 440.358 230.991C440.73 230.047 441.475 229.302 442.194 228.581C453.86 216.951 467.586 207.483 478.805 195.406C479.426 194.735 480.071 194.039 480.915 193.642C481.833 193.194 482.901 193.194 483.918 193.17C495.261 193.045 506.605 192.896 517.948 192.772C518.419 218.641 518.866 244.51 519.338 270.379" stroke="#747474" stroke-width="7" stroke-miterlimit="10"/>
<path d="M467.263 231.812L502.782 232.383" stroke="#747474" stroke-width="7" stroke-miterlimit="10"/>
<path d="M657 281.925L677.442 282L698 246.075L677.558 246L657 281.925Z" fill="#747474"/>
<path d="M591 246.925L611.442 247L632 211.075L611.558 211L591 246.925Z" fill="#747474"/>
<path d="M570 285.925L590.442 286L611 250.075L590.558 250L570 285.925Z" fill="#747474"/>
<path d="M634 321.925L654.442 322L675 286.075L654.558 286L634 321.925Z" fill="#747474"/>
<path d="M616.075 245L616 265.442L651.925 286L652 265.558L616.075 245Z" fill="#747474"/>
<path d="M227.5 274.5C227.5 297.071 208.993 315.5 186 315.5C163.007 315.5 144.5 297.071 144.5 274.5C144.5 251.929 163.007 233.5 186 233.5C208.993 233.5 227.5 251.929 227.5 274.5Z" stroke="#747474" stroke-width="15"/>
<circle cx="196" cy="270" r="15" fill="#747474"/>
<g clip-path="url(#clip4_54_2074)">
<path d="M342.5 214.5C342.5 191.929 361.007 173.5 384 173.5C406.993 173.5 425.5 191.929 425.5 214.5C425.5 237.071 406.993 255.5 384 255.5C361.007 255.5 342.5 237.071 342.5 214.5Z" stroke="#747474" stroke-width="15"/>
</g>
<g clip-path="url(#clip5_54_2074)">
<circle cx="424.5" cy="295.5" r="100" stroke="#747474" stroke-width="15"/>
</g>
<g clip-path="url(#clip6_54_2074)">
<path d="M459 329L381 251L303 173" stroke="#747474" stroke-width="15"/>
</g>
<rect y="168" width="25" height="25" fill="#747474"/>
<rect x="29" y="168" width="25" height="25" fill="#747474"/>
<rect x="58.25" y="168" width="25" height="25" fill="#747474"/>
<rect x="29.25" y="197" width="25" height="25" fill="#747474"/>
<rect x="29.25" y="226" width="25" height="25" fill="#747474"/>
<rect x="29" y="255" width="25" height="25" fill="#747474"/>
<g clip-path="url(#clip7_54_2074)">
<path d="M504.5 214.5C504.5 191.929 523.007 173.5 546 173.5C568.993 173.5 587.5 191.929 587.5 214.5C587.5 237.071 568.993 255.5 546 255.5C523.007 255.5 504.5 237.071 504.5 214.5Z" stroke="#747474" stroke-width="15"/>
</g>
<g clip-path="url(#clip8_54_2074)">
<path d="M539 301L539 136" stroke="#747474" stroke-width="15"/>
</g>
<path d="M111 213.066V233.521C110.909 233.513 110.81 233.513 110.711 233.513C106.941 233.513 103.674 234.684 100.918 237.018C98.4097 239.139 97.0401 242.332 96.8091 246.599C96.7761 247.041 96.7678 247.491 96.7678 247.95V264H76.2239L76.2239 247.876C76.2239 247.434 76.2157 247 76.1827 246.582C75.9682 242.3 74.5986 239.081 72.0822 236.952C69.3265 234.618 66.0593 233.447 62.2888 233.447C62.1898 233.447 62.0908 233.447 62 233.456V213H62.2888C66.4635 213 70.6053 213.729 74.7058 215.203C78.8146 216.669 82.4861 218.806 85.7203 221.615C86.0008 221.852 86.2731 222.098 86.5371 222.352C86.7846 222.122 87.0322 221.901 87.2797 221.68C90.5139 218.88 94.1854 216.742 98.2859 215.268C102.395 213.794 106.528 213.066 110.711 213.066H111Z" fill="#747474"/>
<path d="M97 276H76V317H97V276Z" fill="#747474"/>
<path d="M259 170H239V252H259V170Z" fill="#747474"/>
<path d="M281 217L281 237.452C281.091 237.452 281.191 237.452 281.29 237.452C285.079 237.452 288.353 238.623 291.13 240.957C293.907 243.298 295.292 246.942 295.292 251.879L295.292 268L316 268L316 251.879C316 246.131 314.98 241.055 312.958 236.642C310.927 232.229 308.216 228.561 304.833 225.613C301.584 222.805 297.895 220.668 293.775 219.202C289.646 217.729 285.493 217 281.298 217L281.008 217L281 217Z" fill="#747474"/>
<path d="M239 259L259.452 259C259.452 259.091 259.452 259.191 259.452 259.29C259.452 263.079 260.623 266.353 262.957 269.13C265.298 271.907 268.942 273.292 273.879 273.292L290 273.292L290 294L273.879 294C268.131 294 263.055 292.98 258.642 290.958C254.229 288.927 250.561 286.216 247.613 282.833C244.805 279.584 242.668 275.895 241.202 271.775C239.729 267.646 239 263.493 239 259.298L239 259.008L239 259Z" fill="#747474"/>
<path d="M306 190L306 169L265 169L265 190L306 190Z" fill="#747474"/>
<rect width="25" height="25" transform="matrix(1 -8.74228e-08 -8.74228e-08 -1 663 238)" fill="#747474"/>
<rect width="25" height="25" transform="matrix(1 -8.74228e-08 -8.74228e-08 -1 692.25 238)" fill="#747474"/>
<rect width="25" height="25" transform="matrix(1 -8.74228e-08 -8.74228e-08 -1 663.25 209)" fill="#747474"/>
<rect width="25" height="25" transform="matrix(1 -8.74228e-08 -8.74228e-08 -1 663.25 180)" fill="#747474"/>
<rect width="25" height="25" transform="matrix(1 -8.74228e-08 -8.74228e-08 -1 722 274)" fill="#747474"/>
<rect width="25" height="25" transform="matrix(1 -8.74228e-08 -8.74228e-08 -1 722 302)" fill="#747474"/>
<rect width="25" height="25" transform="matrix(1 -8.74228e-08 -8.74228e-08 -1 722.25 245)" fill="#747474"/>
<rect width="25" height="25" transform="matrix(1 -8.74228e-08 -8.74228e-08 -1 722.25 216)" fill="#747474"/>
<path d="M100.42 198.786C113.115 190.388 125.81 182.019 138.504 173.621C140.133 172.554 141.762 171.459 143.616 170.813C146.396 169.802 149.43 169.83 152.379 169.858C163.501 169.97 174.763 170.083 185.52 172.891C187.429 173.397 189.423 174.014 190.772 175.475C191.867 176.683 192.401 178.283 192.794 179.856C194.198 185.445 194.198 191.287 194.17 197.072C194.17 201.51 194.17 205.947 194.17 210.385C194.17 211.845 194.142 213.39 193.355 214.626C192.597 215.833 191.221 216.479 189.901 216.957C186.081 218.333 181.953 218.614 177.908 218.586C161.703 218.501 145.638 217.659 129.489 218.642C129.686 232.684 129.91 244.817 130.107 258.831" stroke="#747474" stroke-width="7" stroke-miterlimit="10"/>
<path d="M707.556 37.1214C700.336 33.3176 693.681 28.4848 687.842 22.8101C686.869 21.8748 685.896 20.9082 684.64 20.4093C683.604 20.004 682.474 19.9728 681.375 19.9416C669.039 19.5987 656.67 19.2869 644.334 18.9439C642.513 18.8816 640.692 18.8504 638.934 19.3492C636.078 20.1911 633.88 22.436 631.714 24.4938C623.961 32.008 615.234 38.5557 605.817 43.9185C604.404 44.7292 602.834 45.6334 602.269 47.1612C601.956 47.9718 601.956 48.876 601.987 49.749C602.081 55.9849 602.175 62.2207 602.269 68.4566C602.269 68.9555 602.301 69.4855 602.678 69.8285C602.991 70.1403 603.494 70.1403 603.933 70.1403C609.207 70.2026 614.512 70.2338 619.786 70.2962C620.853 70.2962 621.952 70.2962 623.019 70.0156C624.18 69.6726 625.216 68.9867 626.221 68.3007C631.62 64.6839 637.302 61.4413 643.141 58.604C646.029 57.2009 649.011 55.8602 652.181 55.3613C654.379 55.0183 656.608 55.0807 658.836 55.1119C674.94 55.5172 691.044 55.9225 707.147 56.3279C707.838 56.3279 708.591 56.3902 709.188 56.7644C709.878 57.2009 710.192 58.0427 710.443 58.8222C711.887 63.4679 712.013 68.4254 712.044 73.2894C712.139 88.7855 711.354 104.282 710.569 119.747C699.519 120.464 688.438 120.9 677.326 121.056C676.353 121.056 675.38 121.056 674.469 120.713C673.559 120.339 672.868 119.622 672.178 118.936C663.2 109.707 654.002 100.696 644.522 91.9658" stroke="#747474" stroke-width="7" stroke-miterlimit="10"/>
<defs>
<clipPath id="clip0_54_2074">
<rect width="100" height="100" fill="white" transform="translate(352 116) rotate(-90)"/>
</clipPath>
<clipPath id="clip1_54_2074">
<rect width="100" height="100" fill="white" transform="translate(0 26)"/>
</clipPath>
<clipPath id="clip2_54_2074">
<rect width="100" height="100" fill="white" transform="matrix(0 -1 1 0 14 100)"/>
</clipPath>
<clipPath id="clip3_54_2074">
<rect width="100" height="100" fill="white" transform="translate(108 26)"/>
</clipPath>
<clipPath id="clip4_54_2074">
<rect width="100" height="100" fill="white" transform="translate(484 263) rotate(-180)"/>
</clipPath>
<clipPath id="clip5_54_2074">
<rect width="100" height="100" fill="white" transform="translate(317 188)"/>
</clipPath>
<clipPath id="clip6_54_2074">
<rect width="100" height="100" fill="white" transform="translate(431 201) rotate(90)"/>
</clipPath>
<clipPath id="clip7_54_2074">
<rect width="100" height="100" fill="white" transform="translate(646 263) rotate(180)"/>
</clipPath>
<clipPath id="clip8_54_2074">
<rect width="100" height="100" fill="white" transform="translate(549 292) rotate(180)"/>
</clipPath>
</defs>
</svg>
