<svg width="56" height="56" viewBox="0 0 56 56" fill="none" xmlns="http://www.w3.org/2000/svg">
<path d="M55.3448 1.11792H1.22217V55.0343H55.3448V1.11792Z" fill="#F1F1F1" stroke="black" stroke-width="0.75" stroke-miterlimit="10"/>
<path d="M5.85534 6.33862C6.38211 6.33862 6.32808 7.02486 5.85534 7.02486C5.35558 7.02486 5.4096 6.33862 5.85534 6.33862Z" fill="#5E5E5E"/>
<path d="M13.2975 6.33862C13.7973 6.33862 13.7838 7.03831 13.2975 7.03831C12.8113 7.03831 12.7977 6.33862 13.2975 6.33862Z" fill="#5E5E5E"/>
<path d="M20.74 6.33862C20.9831 6.33862 21.1181 6.51355 21.1181 6.68847C21.1181 6.86339 20.8885 7.06522 20.74 7.06522C20.2942 7.06522 20.2267 6.33862 20.74 6.33862Z" fill="#5E5E5E"/>
<path d="M28.5606 6.68841C28.5606 6.90369 28.3715 7.06516 28.1824 7.06516C28.0338 7.06516 27.8042 6.83642 27.8042 6.68841C27.8042 6.21746 28.5606 6.24437 28.5606 6.68841Z" fill="#5E5E5E"/>
<path d="M35.6247 6.3252C36.0569 6.3252 36.1244 7.05179 35.6247 7.05179C35.1249 7.05179 35.1384 6.3252 35.6247 6.3252Z" fill="#5E5E5E"/>
<path d="M43.067 6.35205C43.5398 6.35205 43.5533 7.03828 43.067 7.03828C42.5808 7.03828 42.5673 6.35205 43.067 6.35205Z" fill="#5E5E5E"/>
<path d="M50.509 6.33862C51.0493 6.33862 51.0088 7.03831 50.509 7.03831C49.9687 7.03831 50.0903 6.33862 50.509 6.33862Z" fill="#5E5E5E"/>
<path d="M5.85506 13.5374C6.34132 13.5374 6.32781 14.2505 5.85506 14.2505C5.44985 14.2505 5.27426 13.5374 5.85506 13.5374Z" fill="#5E5E5E"/>
<path d="M13.2974 13.5239C13.7702 13.5239 13.7567 14.2371 13.2974 14.2371C12.7301 14.2371 12.8652 13.5239 13.2974 13.5239Z" fill="#5E5E5E"/>
<path d="M20.7399 13.5374C21.2802 13.5374 21.2262 14.264 20.7399 14.264C20.2536 14.264 20.1726 13.5374 20.7399 13.5374Z" fill="#5E5E5E"/>
<path d="M28.1824 13.5374C28.6686 13.5374 28.6551 14.2505 28.1824 14.2505C27.7637 14.2505 27.6151 13.5374 28.1824 13.5374Z" fill="#5E5E5E"/>
<path d="M35.6244 13.5239C36.1107 13.5239 36.1107 14.2505 35.6244 14.2505C35.4488 14.2505 35.2598 14.0891 35.2598 13.9007C35.2598 13.6988 35.4759 13.5374 35.6244 13.5374V13.5239Z" fill="#5E5E5E"/>
<path d="M43.0671 13.5508C43.6209 13.5508 43.4588 14.2505 43.0671 14.2505C42.6349 14.2505 42.5539 13.5508 43.0671 13.5508Z" fill="#5E5E5E"/>
<path d="M50.5094 13.5105C50.6444 13.5105 50.8876 13.7258 50.8876 13.8873C50.8876 14.0487 50.712 14.2506 50.5094 14.2506C49.9826 14.2506 50.0366 13.5105 50.5094 13.5105Z" fill="#5E5E5E"/>
<path d="M5.85525 20.7092C6.00382 20.7092 6.24694 20.938 6.24694 21.086C6.24694 21.5838 5.47705 21.5166 5.47705 21.086C5.47705 20.9514 5.72017 20.7092 5.86874 20.7092H5.85525Z" fill="#5E5E5E"/>
<path d="M13.2976 20.7361C13.8649 20.7361 13.6758 21.4492 13.2976 21.4492C12.8249 21.4492 12.8114 20.7361 13.2976 20.7361Z" fill="#5E5E5E"/>
<path d="M20.74 20.7495C21.2668 20.7495 21.2263 21.4492 20.74 21.4492C20.5779 21.4492 20.3618 21.2474 20.3618 21.0859C20.3618 20.9513 20.5239 20.7495 20.74 20.7495Z" fill="#5E5E5E"/>
<path d="M28.1824 20.7227C28.6686 20.7227 28.7227 21.4223 28.1824 21.4223C27.9663 21.4223 27.8042 21.234 27.8042 21.086C27.8042 20.9379 28.0203 20.7227 28.1824 20.7227Z" fill="#5E5E5E"/>
<path d="M35.6244 20.7227C36.1107 20.7227 36.1377 21.4627 35.6244 21.4627C35.1652 21.4627 35.1247 20.7227 35.6244 20.7227Z" fill="#5E5E5E"/>
<path d="M43.0669 20.7495C43.5937 20.7495 43.5262 21.4627 43.0669 21.4627C42.6347 21.4627 42.4997 20.7495 43.0669 20.7495Z" fill="#5E5E5E"/>
<path d="M50.5092 20.7227C50.9954 20.7227 50.9684 21.4223 50.5092 21.4223C49.9959 21.4223 50.0229 20.7227 50.5092 20.7227Z" fill="#5E5E5E"/>
<path d="M5.85503 27.908C6.04413 27.908 6.24672 28.1098 6.24672 28.2847C6.24672 28.4193 6.01711 28.648 5.85503 28.648C5.36878 28.648 5.4093 27.908 5.85503 27.908Z" fill="#5E5E5E"/>
<path d="M13.2973 27.9482C13.8781 27.9482 13.743 28.6614 13.2973 28.6614C12.8516 28.6614 12.7435 27.9482 13.2973 27.9482Z" fill="#5E5E5E"/>
<path d="M20.7399 27.908C20.9019 27.908 21.091 28.0425 21.091 28.2713C21.091 28.4731 20.8749 28.648 20.7399 28.648C20.5237 28.648 20.3481 28.4596 20.3481 28.2713C20.3481 28.1232 20.5643 27.908 20.7399 27.908Z" fill="#5E5E5E"/>
<path d="M28.1823 27.9214C28.6955 27.9214 28.628 28.6345 28.1823 28.6345C27.696 28.6345 27.6555 27.9214 28.1823 27.9214Z" fill="#5E5E5E"/>
<path d="M35.6244 27.908C35.8134 27.908 36.0161 28.1098 36.0161 28.2847C36.0161 28.4193 35.854 28.6211 35.6244 28.6211C35.003 28.6211 35.2462 27.908 35.6244 27.908Z" fill="#5E5E5E"/>
<path d="M43.067 27.9483C43.3372 27.9483 43.4182 28.0155 43.4182 28.2847C43.4182 28.5134 43.3237 28.621 43.067 28.621C42.5808 28.621 42.5673 27.9348 43.067 27.9348V27.9483Z" fill="#5E5E5E"/>
<path d="M50.5094 27.9214C51.0226 27.9214 50.9551 28.648 50.5094 28.648C50.0636 28.648 49.9826 27.9214 50.5094 27.9214Z" fill="#5E5E5E"/>
<path d="M5.85512 35.1201C6.08474 35.1201 6.24682 35.322 6.24682 35.47C6.24682 35.5911 6.07124 35.8063 5.85512 35.8063C5.35536 35.8063 5.36887 35.1201 5.85512 35.1201Z" fill="#5E5E5E"/>
<path d="M13.2976 35.1067C13.4597 35.1067 13.6758 35.322 13.6758 35.47C13.6758 35.6584 13.5273 35.8333 13.2976 35.8333C12.7844 35.8333 12.8249 35.1067 13.2976 35.1067Z" fill="#5E5E5E"/>
<path d="M20.7397 35.1067C21.2395 35.1067 21.28 35.8333 20.7397 35.8333C20.1994 35.8333 20.2535 35.1067 20.7397 35.1067Z" fill="#5E5E5E"/>
<path d="M28.1823 35.1067C28.6955 35.1067 28.655 35.8467 28.1823 35.8467C27.6555 35.8467 27.696 35.1067 28.1823 35.1067Z" fill="#5E5E5E"/>
<path d="M35.6247 35.1067C36.1515 35.1067 36.0434 35.8333 35.6247 35.8333C35.1655 35.8333 35.1655 35.1067 35.6247 35.1067Z" fill="#5E5E5E"/>
<path d="M43.067 35.1201C43.5938 35.1201 43.5668 35.8198 43.067 35.8198C42.8104 35.8198 42.6753 35.618 42.6753 35.4834C42.6753 35.3489 42.8644 35.1201 43.067 35.1201Z" fill="#5E5E5E"/>
<path d="M50.5094 35.1335C50.9146 35.1335 51.0767 35.8198 50.5094 35.8198C50.0636 35.8198 49.9826 35.1335 50.5094 35.1335Z" fill="#5E5E5E"/>
<path d="M5.85523 42.3323C6.08485 42.3323 6.23343 42.5072 6.23343 42.6687C6.23343 42.8302 6.00381 43.0454 5.85523 43.0454C5.35547 43.0454 5.32846 42.3188 5.85523 42.3188V42.3323Z" fill="#5E5E5E"/>
<path d="M13.2975 42.3052C13.7972 42.3052 13.8107 43.0183 13.2975 43.0183C13.0138 43.0183 12.9463 42.8972 12.9463 42.6685C12.9463 42.4128 13.0814 42.2917 13.2975 42.2917V42.3052Z" fill="#5E5E5E"/>
<path d="M20.74 42.3188C21.1857 42.3188 21.2397 43.0185 20.74 43.0185C20.1862 43.0185 20.3212 42.3188 20.74 42.3188Z" fill="#5E5E5E"/>
<path d="M28.1823 42.3054C28.655 42.3054 28.7496 43.0186 28.1823 43.0186C27.6825 43.0186 27.696 42.3054 28.1823 42.3054Z" fill="#5E5E5E"/>
<path d="M35.6246 42.2917C36.1379 42.2917 36.0703 43.0453 35.6246 43.0453C35.4895 43.0453 35.2734 42.8703 35.2734 42.6685C35.2734 42.4667 35.503 42.2917 35.6246 42.2917Z" fill="#5E5E5E"/>
<path d="M43.0667 42.3054C43.5529 42.3054 43.5664 43.0589 43.0667 43.0589C42.9046 43.0589 42.6885 42.8571 42.6885 42.6822C42.6885 42.5207 42.9181 42.3054 43.0667 42.3054Z" fill="#5E5E5E"/>
<path d="M50.5091 42.3054C50.9548 42.3054 51.0089 43.0186 50.5091 43.0186C50.0093 43.0186 50.0093 42.3054 50.5091 42.3054Z" fill="#5E5E5E"/>
<path d="M5.85489 49.5042C6.30062 49.5042 6.36816 50.2173 5.85489 50.2173C5.34162 50.2173 5.44968 49.5042 5.85489 49.5042Z" fill="#5E5E5E"/>
<path d="M13.2972 49.531C13.5133 49.531 13.6754 49.7328 13.6754 49.8808C13.6754 50.0692 13.4593 50.2576 13.2972 50.2576C12.838 50.2576 12.7434 49.531 13.2972 49.531Z" fill="#5E5E5E"/>
<path d="M20.7398 49.531C21.1721 49.531 21.2666 50.2307 20.7398 50.2307C20.2131 50.2307 20.2671 49.531 20.7398 49.531Z" fill="#5E5E5E"/>
<path d="M28.1824 49.531C28.6956 49.531 28.6416 50.2576 28.1824 50.2576C27.7231 50.2576 27.6016 49.531 28.1824 49.531Z" fill="#5E5E5E"/>
<path d="M35.6246 49.5176C36.1108 49.5176 36.1514 50.2442 35.6246 50.2442C35.1653 50.2442 35.0978 49.5176 35.6246 49.5176Z" fill="#5E5E5E"/>
<path d="M43.0667 49.5042C43.5529 49.5042 43.5394 50.2308 43.0667 50.2308C42.5939 50.2308 42.5534 49.5042 43.0667 49.5042Z" fill="#5E5E5E"/>
<path d="M50.8605 49.8807C50.8605 50.4323 50.1177 50.2574 50.1177 49.8807C50.1177 49.4635 50.8605 49.3155 50.8605 49.8807Z" fill="#5E5E5E"/>
<path d="M6.84131 23.7368C9.78584 18.6102 14.4593 14.4793 19.9296 12.1919C21.4559 11.546 23.3604 11.102 24.6706 12.1112C25.3999 12.6763 25.7781 13.5913 25.9537 14.4928C27.1964 21.0053 19.754 26.2395 19.3758 32.8596C19.3488 33.4247 19.4028 34.0706 19.8756 34.3935C20.2132 34.6223 20.659 34.6088 21.0642 34.5415C24.8326 33.9764 27.6016 30.8413 30.9243 28.971C33.1935 27.6927 35.7868 26.993 38.4072 26.9661C39.1906 26.9661 40.0145 27.0199 40.6764 27.4236C42.2297 28.352 42.2837 30.5722 42.0136 32.3618C41.7164 34.3263 41.2842 36.2639 40.6899 38.1745C40.1226 40.0045 39.5013 42.2112 40.7574 43.6644C42.2162 45.3329 44.9581 44.5928 46.9301 43.5702C48.3889 42.8167 49.7936 41.969 51.1443 41.054" stroke="#909090" stroke-width="0.75" stroke-miterlimit="10"/>
</svg>
