<svg width="92" height="63" viewBox="0 0 92 63" fill="none" xmlns="http://www.w3.org/2000/svg">
<path d="M59.8532 47.7458H1.34082L31.2588 0.732178L59.8532 47.7458Z" fill="#C7C7C7" stroke="black" stroke-width="0.75" stroke-miterlimit="10"/>
<path d="M46.0762 6.03381V51.3655H91.5813V6.03381H46.0762Z" fill="#F1F1F1" stroke="black" stroke-width="0.64" stroke-miterlimit="10"/>
<path d="M86.9619 21.1307V9.51855H75.3054V21.1307H86.9619Z" fill="#909090"/>
<path d="M86.9482 34.492V22.8799H75.2917V34.492H86.9482Z" fill="#909090"/>
<path d="M73.8062 34.492V22.8799H62.1496V34.492H73.8062Z" fill="#909090"/>
<path d="M86.8403 47.7861V36.3354H75.3053V47.7861H86.8403Z" fill="#909090"/>
<path d="M56.2064 57.057C65.7549 57.057 73.4954 49.346 73.4954 39.8339C73.4954 30.3219 65.7549 22.6108 56.2064 22.6108C46.658 22.6108 38.9175 30.3219 38.9175 39.8339C38.9175 49.346 46.658 57.057 56.2064 57.057Z" fill="#C7C7C7" stroke="black" stroke-width="0.75" stroke-miterlimit="10"/>
<path d="M22.0063 29.4598L22.0063 62.0491H54.7203V29.4598H22.0063Z" fill="#F4F4F4"/>
<mask id="mask0_36_1579" style="mask-type:luminance" maskUnits="userSpaceOnUse" x="22" y="29" width="33" height="34">
<path d="M22.0063 29.4598L22.0063 62.0491H54.7203V29.4598H22.0063Z" fill="white"/>
</mask>
<g mask="url(#mask0_36_1579)">
<path d="M54.7881 61.9145L21.2231 28.8677" stroke="#909090" stroke-width="3.01" stroke-miterlimit="10"/>
</g>
<path d="M22.0063 29.4598L22.0063 62.0491H54.7203V29.4598H22.0063Z" stroke="black" stroke-width="0.38" stroke-miterlimit="10"/>
</svg>
