<?xml version="1.0" encoding="UTF-8"?>
<svg id="Layer_1" data-name="Layer 1" xmlns="http://www.w3.org/2000/svg" viewBox="0 0 107.01 107.01">
  <defs>
    <style>
      .cls-1 {
        fill: #969696;
      }
    </style>
  </defs>
  <path class="cls-1" d="M80.13,22.44v24.98c-.11-.01-.23-.01-.35-.01-4.57,0-8.53,1.43-11.87,4.28-3.04,2.59-4.7,6.49-4.98,11.7-.04.54-.05,1.09-.05,1.65v19.6h-24.9v-19.69c0-.54-.01-1.07-.05-1.58-.26-5.23-1.92-9.16-4.97-11.76-3.34-2.85-7.3-4.28-11.87-4.28-.12,0-.24,0-.35.01v-24.98h.35c5.06,0,10.08.89,15.05,2.69,4.98,1.79,9.43,4.4,13.35,7.83.34.29.67.59.99.9.3-.28.6-.55.9-.82,3.92-3.42,8.37-6.03,13.34-7.83,4.98-1.8,9.99-2.69,15.06-2.69h.35Z"/>
</svg>